<svg width="32" height="32" viewBox="0 0 32 32" fill="none" xmlns="http://www.w3.org/2000/svg">
    <path fill-rule="evenodd" clip-rule="evenodd" d="M6.6463 14.2322L11.6463 9.23223C12.1151 8.76339 12.751 8.5 13.4141 8.5L23.9998 8.5C25.3806 8.5 26.4998 9.61929 26.4998 11V21C26.4998 22.3807 25.3806 23.5 23.9998 23.5H13.4141C12.751 23.5 12.1151 23.2366 11.6463 22.7678L6.6463 17.7678C5.66998 16.7915 5.66998 15.2085 6.6463 14.2322ZM12.707 10.2929C12.8945 10.1054 13.1488 10 13.4141 10L23.9998 10C24.5521 10 24.9998 10.4477 24.9998 11V21C24.9998 21.5523 24.5521 22 23.9998 22H13.4141C13.1488 22 12.8945 21.8946 12.707 21.7071L7.70696 16.7071C7.31643 16.3166 7.31643 15.6834 7.70696 15.2929L12.707 10.2929Z" fill="#222426"/>
    <path d="M17.5304 13.4697C17.2376 13.1768 16.7627 13.1768 16.4698 13.4697C16.1769 13.7626 16.1769 14.2374 16.4698 14.5303L17.9395 16L16.4697 17.4698C16.1768 17.7627 16.1768 18.2375 16.4697 18.5304C16.7626 18.8233 17.2374 18.8233 17.5303 18.5304L19.0001 17.0607L20.4698 18.5303C20.7627 18.8232 21.2375 18.8232 21.5304 18.5303C21.8233 18.2374 21.8233 17.7626 21.5304 17.4697L20.0608 16L21.5303 14.5304C21.8232 14.2376 21.8232 13.7627 21.5303 13.4698C21.2374 13.1769 20.7626 13.1769 20.4697 13.4698L19.0001 14.9393L17.5304 13.4697Z" fill="#222426"/>
</svg>
