<svg width="20" height="22" viewBox="0 0 20 22" fill="none" xmlns="http://www.w3.org/2000/svg">
    <path fill-rule="evenodd" clip-rule="evenodd" d="M8.93938 0.93934C9.52517 0.353553 10.4749 0.353553 11.0607 0.93934L19.0607 8.93934C19.4897 9.36834 19.618 10.0135 19.3859 10.574C19.1537 11.1345 18.6067 11.5 18 11.5H15.5V14C15.5 14.8284 14.8285 15.5 14 15.5H6.00004C5.17162 15.5 4.50004 14.8284 4.50004 14V11.5H2.00004C1.39335 11.5 0.846396 11.1345 0.614225 10.574C0.382053 10.0135 0.510387 9.36834 0.939384 8.93934L8.93938 0.93934ZM14 10H18L10 2L2.00004 10H6.00004V14H14V10ZM4.50004 18.5C4.50004 17.6716 5.17162 17 6.00004 17H14C14.8285 17 15.5 17.6716 15.5 18.5V20C15.5 20.8284 14.8285 21.5 14 21.5H6.00004C5.17162 21.5 4.50004 20.8284 4.50004 20V18.5ZM6.00004 18.5V20H14V18.5H6.00004Z" fill="#222426"/>
</svg>
