<svg width="21" height="20" viewBox="0 0 21 20" fill="none" xmlns="http://www.w3.org/2000/svg">
    <path fill-rule="evenodd" clip-rule="evenodd" d="M20.5 10C20.5 15.5228 16.0228 20 10.5 20C4.97715 20 0.5 15.5228 0.5 10C0.5 4.47715 4.97715 0 10.5 0C16.0228 0 20.5 4.47715 20.5 10ZM6.42689 12.25C6.31052 11.5179 6.25 10.7662 6.25 10.0001C6.25 9.23385 6.31053 8.48216 6.42691 7.75H2.30098C2.10477 8.46665 2 9.22109 2 10C2 10.7789 2.10477 11.5334 2.30098 12.25H6.42689ZM6.74985 13.75H2.86981C4.04301 16.1326 6.29935 17.886 8.99622 18.3674C7.98433 17.0101 7.21357 15.4473 6.74985 13.75ZM8.31188 13.75H12.6881C12.2168 15.2755 11.4658 16.667 10.5 17.8582C9.53422 16.667 8.78323 15.2755 8.31188 13.75ZM13.052 12.25H7.94803C7.81804 11.5213 7.75 10.7692 7.75 10.0001C7.75 9.23087 7.81804 8.47878 7.94805 7.75H13.0519C13.182 8.47878 13.25 9.23087 13.25 10.0001C13.25 10.7692 13.182 11.5213 13.052 12.25ZM14.5731 12.25H18.699C18.8952 11.5334 19 10.7789 19 10C19 9.22109 18.8952 8.46665 18.699 7.75H14.5731C14.6895 8.48216 14.75 9.23385 14.75 10.0001C14.75 10.7662 14.6895 11.5179 14.5731 12.25ZM14.2501 13.75H18.1302C16.957 16.1326 14.7006 17.886 12.0038 18.3674C13.0157 17.0101 13.7864 15.4473 14.2501 13.75ZM14.2501 6.25H18.1302C16.957 3.86735 14.7006 2.11401 12.0037 1.63259C13.0156 2.98993 13.7864 4.55271 14.2501 6.25ZM12.6881 6.25C12.2167 4.7245 11.4658 3.33307 10.5 2.14191C9.53424 3.33307 8.78327 4.7245 8.31191 6.25H12.6881ZM6.74988 6.25C7.21362 4.55271 7.9844 2.98993 8.99632 1.63259C6.2994 2.11401 4.04303 3.86735 2.86981 6.25H6.74988Z" fill="#222426"/>
</svg>
