<svg width="14" height="14" viewBox="0 0 14 14" fill="none" xmlns="http://www.w3.org/2000/svg">
    <path d="M1.53044 0.46967C1.23755 0.176777 0.762677 0.176777 0.469783 0.46967C0.17689 0.762563 0.17689 1.23744 0.469783 1.53033L5.93945 7L0.46967 12.4698C0.176777 12.7627 0.176777 13.2376 0.46967 13.5304C0.762563 13.8233 1.23744 13.8233 1.53033 13.5304L7.00011 8.06066L12.4698 13.5303C12.7627 13.8232 13.2376 13.8232 13.5304 13.5303C13.8233 13.2374 13.8233 12.7626 13.5304 12.4697L8.06077 7L13.5303 1.53044C13.8232 1.23755 13.8232 0.762676 13.5303 0.469783C13.2374 0.17689 12.7626 0.17689 12.4697 0.469783L7.00011 5.93934L1.53044 0.46967Z" fill="#222426"/>
</svg>
