<svg width="22" height="19" viewBox="0 0 22 19" fill="none" xmlns="http://www.w3.org/2000/svg">
    <path d="M15 0.25C14.5858 0.25 14.25 0.585786 14.25 1C14.25 1.41421 14.5858 1.75 15 1.75H20C20.1381 1.75 20.25 1.86193 20.25 2V12C20.25 12.1381 20.1381 12.25 20 12.25H3.34043L8.43593 8.61036C8.77299 8.3696 8.85106 7.90119 8.6103 7.56413C8.36954 7.22707 7.90113 7.149 7.56407 7.38976L0.564071 12.3898C0.366974 12.5305 0.25 12.7578 0.25 13.0001C0.25 13.2423 0.366974 13.4696 0.564071 13.6104L7.56407 18.6104C7.90113 18.8511 8.36954 18.773 8.6103 18.436C8.85106 18.0989 8.77299 17.6305 8.43593 17.3898L3.34027 13.75H20C20.9665 13.75 21.75 12.9665 21.75 12V2C21.75 1.0335 20.9665 0.25 20 0.25H15Z" fill="#222426"/>
</svg>
