<svg width="20" height="20" viewBox="0 0 20 20" fill="none" xmlns="http://www.w3.org/2000/svg">
    <path fill-rule="evenodd" clip-rule="evenodd" d="M8.93938 0.93934C9.52517 0.353553 10.4749 0.353553 11.0607 0.93934L19.0607 8.93934C19.4897 9.36834 19.618 10.0135 19.3859 10.574C19.1537 11.1345 18.6067 11.5 18 11.5H15.5V18C15.5 18.8284 14.8285 19.5 14 19.5H6.00004C5.17162 19.5 4.50004 18.8284 4.50004 18V11.5H2.00004C1.39335 11.5 0.846396 11.1345 0.614225 10.574C0.382053 10.0135 0.510387 9.36834 0.939384 8.93934L8.93938 0.93934ZM6.00004 10V18H14V10H18L10 2L2.00004 10H6.00004Z" fill="#222426"/>
</svg>
