<svg width="21" height="22" viewBox="0 0 21 22" fill="none" xmlns="http://www.w3.org/2000/svg">
    <path fill-rule="evenodd" clip-rule="evenodd" d="M2.80954 0.650001C3.31204 0.854001 3.71254 1.247 3.92704 1.745C4.03504 2 4.09054 2.273 4.08754 2.5505C4.09038 2.88831 4.00803 3.22138 3.8481 3.51895C3.68818 3.81652 3.45583 4.06898 3.17254 4.253C2.83716 4.47323 2.44425 4.58958 2.04304 4.5875C1.77423 4.58889 1.50782 4.53695 1.25922 4.43468C1.01063 4.33241 0.784786 4.18184 0.594778 3.99169C0.40477 3.80155 0.254368 3.5756 0.15228 3.32693C0.0501917 3.07826 -0.00155509 2.81181 3.55891e-05 2.543C-0.00199139 2.14105 0.115207 1.74753 0.336812 1.41219C0.558417 1.07684 0.874479 0.814733 1.24504 0.659001C1.74495 0.449837 2.30725 0.446602 2.80954 0.650001ZM2.36254 3.2975C2.50916 3.234 2.63423 3.12937 2.72261 2.99626C2.811 2.86315 2.85891 2.70727 2.86054 2.5475C2.86171 2.37049 2.80571 2.19782 2.70087 2.05519C2.59603 1.91256 2.44794 1.80759 2.27864 1.75588C2.10934 1.70418 1.92788 1.70851 1.76124 1.76823C1.5946 1.82795 1.45169 1.93987 1.35377 2.08734C1.25585 2.23481 1.20815 2.40995 1.21777 2.58671C1.22739 2.76346 1.29381 2.93239 1.40715 3.06837C1.5205 3.20434 1.67471 3.30009 1.84685 3.34137C2.01898 3.38266 2.19985 3.36727 2.36254 3.2975ZM8.14504 0.663501L0.165036 8.645L1.19404 9.6755L9.17404 1.6955L8.14504 0.665001V0.663501ZM15.75 12.5H17.25V16.25H21V17.75H17.25V21.5H15.75V17.75H12V16.25H15.75V12.5ZM7.15204 13.2875L8.21254 14.348L5.56054 17L8.21254 19.652L7.15204 20.7125L4.50004 18.0605L1.84804 20.7125L0.787536 19.652L3.43954 17L0.787536 14.348L1.84804 13.2875L4.50004 15.9395L7.15204 13.2875ZM9.17704 6.995C9.02164 6.62421 8.75961 6.30792 8.42419 6.08627C8.08877 5.86461 7.69507 5.74758 7.29304 5.75C6.89109 5.74797 6.49757 5.86517 6.16222 6.08678C5.82688 6.30838 5.56477 6.62444 5.40904 6.995C5.27674 7.3061 5.22371 7.64516 5.2547 7.98179C5.28569 8.31842 5.39973 8.6421 5.5866 8.92382C5.77347 9.20553 6.02732 9.43647 6.3254 9.59593C6.62349 9.7554 6.95648 9.8384 7.29454 9.8375C7.63288 9.83942 7.96638 9.75702 8.2649 9.59776C8.56343 9.4385 8.81758 9.20738 9.0044 8.92528C9.19123 8.64318 9.30484 8.31899 9.33498 7.98199C9.36512 7.64498 9.31084 7.30577 9.17704 6.995ZM8.04754 8.1125C7.96401 8.30762 7.80887 8.4633 7.61404 8.5475C7.46378 8.61084 7.29807 8.62797 7.13803 8.59671C6.978 8.56545 6.83091 8.48722 6.71554 8.372C6.64037 8.29802 6.58071 8.2098 6.54004 8.1125C6.47504 7.96229 6.45671 7.79601 6.48744 7.63525C6.51816 7.47449 6.59652 7.32669 6.71233 7.21104C6.82815 7.09539 6.97606 7.01724 7.13686 6.98673C7.29766 6.95623 7.46392 6.97479 7.61404 7.04C7.71057 7.08142 7.79857 7.14042 7.87354 7.214C7.98816 7.32976 8.06587 7.47692 8.09684 7.63685C8.12782 7.79679 8.11066 7.96232 8.04754 8.1125ZM19.5 3.5H13.5V5H19.5V3.5Z" fill="#222426"/>
</svg>
